<svg width="17" height="18" viewBox="0 0 17 18" fill="none" xmlns="http://www.w3.org/2000/svg">
<path d="M1.19448 5.77393C1.8439 5.77393 2.37736 6.26598 2.37736 6.865V11.4646C2.37736 12.0743 1.8555 12.5664 1.19448 12.5664C0.533456 12.5664 0 12.0743 0 11.4646V6.865C0 6.26598 0.533456 5.77393 1.19448 5.77393Z" fill="#4F6AFF"/>
<path d="M13.2453 6.11328V13.2712C13.2453 13.9268 12.7015 14.4534 12.0356 14.4534H11.2031V16.8931C11.2031 17.5057 10.6926 18.0001 10.06 18.0001C9.42734 18.0001 8.9168 17.5057 8.9168 16.8931V14.4534H7.38516V16.8931C7.38516 17.5057 6.87462 18.0001 6.24199 18.0001C5.62046 18.0001 5.10991 17.5057 5.10991 16.8931L5.09882 14.4534H4.27751C3.60048 14.4534 3.05664 13.9268 3.05664 13.2712V6.11328H13.2453Z" fill="#4F6AFF"/>
<path d="M11.3838 0.0140709C11.4609 0.0557623 11.483 0.149568 11.4389 0.222528L10.6568 1.58792C12.1989 2.33837 13.2453 3.77673 13.2453 5.43396H3.05664C3.05664 3.77673 4.10305 2.33837 5.65613 1.58792L4.87408 0.222528C4.83002 0.149568 4.85205 0.0557623 4.92915 0.0140709C5.00626 -0.0171977 5.10539 0.003648 5.14945 0.0766081L5.94251 1.45243C6.61442 1.17101 7.36342 1.01467 8.15649 1.01467C8.94955 1.01467 9.69856 1.17101 10.3705 1.45243L11.1635 0.0766081C11.2076 0.003648 11.3067 -0.0171977 11.3838 0.0140709ZM5.83237 2.88036C5.60106 2.88036 5.41381 3.06797 5.41381 3.28685C5.41381 3.50573 5.60106 3.69334 5.83237 3.69334C6.07469 3.69334 6.26194 3.50573 6.26194 3.28685C6.26194 3.06797 6.07469 2.88036 5.83237 2.88036ZM10.4806 2.88036C10.2383 2.88036 10.051 3.06797 10.051 3.28685C10.051 3.50573 10.2383 3.69334 10.4806 3.69334C10.7119 3.69334 10.8992 3.50573 10.8992 3.28685C10.8992 3.06797 10.7119 2.88036 10.4806 2.88036Z" fill="#4F6AFF"/>
<path d="M16.3012 6.865V11.4646C16.3012 12.0743 15.7677 12.5664 15.1067 12.5664C14.4573 12.5664 13.9238 12.0743 13.9238 11.4646V6.865C13.9238 6.25528 14.4573 5.77393 15.1067 5.77393C15.7677 5.77393 16.3012 6.25528 16.3012 6.865Z" fill="#4F6AFF"/>
</svg>
