<svg width="15" height="18" viewBox="0 0 15 18" fill="none" xmlns="http://www.w3.org/2000/svg">
<path d="M14.7272 13.2086C14.4629 14.0517 14.04 14.9481 13.4268 15.8766C12.5176 17.2746 11.6084 17.9683 10.7097 17.9683C10.3503 17.9683 9.86395 17.8509 9.22961 17.6268C8.60585 17.392 8.06666 17.2853 7.6332 17.2853C7.2103 17.2853 6.70283 17.4026 6.13193 17.6374C5.55045 17.8829 5.08527 18.0003 4.73639 18.0003C3.64744 18.0003 2.60078 17.0718 1.55413 15.2363C0.528615 13.4007 0 11.6185 0 9.8683C0 8.2355 0.401747 6.91218 1.19467 5.87701C1.98759 4.85251 2.98139 4.34026 4.1972 4.34026C4.71524 4.34026 5.32844 4.44698 6.0685 4.66041C6.79798 4.87385 7.28431 4.98057 7.52747 4.98057C7.83407 4.98057 8.34154 4.86318 9.03931 4.61773C9.73708 4.38295 10.3503 4.25488 10.8683 4.25488C11.7141 4.25488 12.4647 4.48966 13.1202 4.94856C13.4902 5.20468 13.8603 5.56752 14.2197 6.01574C13.67 6.48531 13.2682 6.90151 13.0145 7.27503C12.5599 7.93668 12.3273 8.67304 12.3273 9.48411C12.3273 10.3592 12.5705 11.1596 13.0568 11.8639C13.5431 12.5683 14.1034 13.0165 14.7272 13.2086Z" fill="#4F6AFF"/>
<path d="M11.1273 0.44121C11.1273 0.871915 11.0195 1.35515 10.8148 1.86989C10.5992 2.39514 10.2651 2.87837 9.81236 3.31958C9.42434 3.69776 9.03632 3.94988 8.6483 4.07594C8.40039 4.14948 8.03393 4.21251 7.52734 4.25453C7.5489 3.21453 7.82914 2.3111 8.36806 1.55474C8.90698 0.79838 9.81236 0.283635 11.0627 0C11.0842 0.094545 11.1058 0.16808 11.1165 0.23111C11.1165 0.304645 11.1273 0.367675 11.1273 0.44121Z" fill="#4F6AFF"/>
</svg>
