<svg width="40" height="40" viewBox="0 0 40 40" fill="none" xmlns="http://www.w3.org/2000/svg">
<path d="M26.0307 9.08872C23.7725 4.52033 19.0488 1.5 13.7503 1.5C6.16866 1.5 0.000602051 7.5765 0.000602051 15.0455C0.000602051 17.0753 0.440435 19.0208 1.30854 20.8347L0.0233359 27.2023C-0.140254 28.0128 0.581448 28.7293 1.39971 28.5689L7.90573 27.2945C8.78172 27.7062 9.68795 28.0193 10.6191 28.235C8.53189 18.4404 16.0251 9.24646 26.0307 9.08872Z" fill="#FCD36E"/>
<path d="M38.6914 30.7419C38.9159 30.2728 39.1112 29.7948 39.2782 29.3089H39.2353C42.1609 20.801 36.0084 11.8592 26.9257 11.4238C26.9255 11.4233 26.9254 11.4228 26.9253 11.4224C19.1102 11.0656 12.6172 17.2652 12.6172 24.9527C12.6172 32.4154 18.739 38.4871 26.2687 38.4979C28.311 38.4952 30.2686 38.0596 32.0941 37.2017C39.2195 38.5974 38.6638 38.4982 38.8275 38.4982C39.568 38.4982 40.1212 37.8258 39.9766 37.1095L38.6914 30.7419Z" fill="#4F6AFF"/>
<ellipse cx="19.9998" cy="25.4044" rx="1.81818" ry="1.80141" fill="#FAFAFA"/>
<ellipse cx="26.3631" cy="25.4044" rx="1.81818" ry="1.80141" fill="#FAFAFA"/>
<ellipse cx="32.7264" cy="25.4044" rx="1.81818" ry="1.80141" fill="#FAFAFA"/>
</svg>
