<svg width="28" height="28" viewBox="0 0 28 28" fill="none" xmlns="http://www.w3.org/2000/svg">
<path d="M27.8105 0C21.8333 0 9.7506 0.00638021 8.9375 0.00638021L18.5406 9.33333L27.8105 0Z" fill="#FECE63"/>
<path d="M9.2699 18.6665L0 27.9998L18.8666 27.9997L18.5398 27.9983L9.2699 18.6665Z" fill="#2D44BF"/>
<path d="M8.93682 0.00585938C8.93682 0.00585938 2.92813 5.99332 0 9.00694C3.00073 12.0935 9.26994 18.6725 9.26994 18.6725L18.5399 9.33609L8.93682 0.00585938Z" fill="#8A9CFC"/>
<path d="M18.5414 9.3335C18.5414 9.3335 12.1996 15.654 9.27148 18.6666C12.2722 21.7521 18.5414 27.9999 18.5414 27.9999C18.5414 27.9999 24.9074 21.7523 27.8114 18.6668C24.738 15.6056 18.5414 9.3335 18.5414 9.3335Z" fill="#4F6AFF"/>
</svg>
