<svg width="380" height="380" viewBox="0 0 380 380" fill="none" xmlns="http://www.w3.org/2000/svg">
<mask id="mask0" mask-type="alpha" maskUnits="userSpaceOnUse" x="4" y="4" width="372" height="372">
<path d="M190 374.933C292.136 374.933 374.933 292.136 374.933 190C374.933 87.8639 292.136 5.06641 190 5.06641C87.8639 5.06641 5.06641 87.8639 5.06641 190C5.06641 292.136 87.8639 374.933 190 374.933Z" fill="#00AE99" stroke="#00AE99" stroke-width="2"/>
</mask>
<g mask="url(#mask0)">
<path d="M190 374.933C292.136 374.933 374.933 292.136 374.933 190C374.933 87.8639 292.136 5.06641 190 5.06641C87.8639 5.06641 5.06641 87.8639 5.06641 190C5.06641 292.136 87.8639 374.933 190 374.933Z" stroke="#4F6AFF" stroke-width="2"/>
<path d="M192.533 93.7334H348.333" stroke="#4F6AFF" stroke-width="2"/>
<path d="M286.266 348.334V190M93.7324 186.2V30.4004V186.2Z" stroke="#4F6AFF" stroke-width="2"/>
<path d="M32.9316 286.267H181.132" stroke="#4F6AFF" stroke-width="2"/>
<path d="M124.354 120.4L234.521 10.2324" stroke="#4F6AFF" stroke-width="2"/>
<path d="M370.661 234.15L258.703 122.191M119.874 255.646L9.70703 145.478L119.874 255.646Z" stroke="#4F6AFF" stroke-width="2"/>
<path d="M147.641 369.396L257.807 259.229" stroke="#4F6AFF" stroke-width="2"/>
<path d="M286.266 190C286.266 216.109 275.871 239.791 258.994 257.133C249.291 267.104 179.866 335.666 179.866 335.666V285.739C131.462 280.675 93.7324 239.744 93.7324 190C93.7324 136.833 136.833 93.7329 189.999 93.7329C243.166 93.7329 286.266 136.833 286.266 190Z" stroke="#4F6AFF" stroke-width="2"/>
<path d="M190.001 200.133C195.597 200.133 200.134 195.596 200.134 190C200.134 184.403 195.597 179.866 190.001 179.866C184.404 179.866 179.867 184.403 179.867 190C179.867 195.596 184.404 200.133 190.001 200.133Z" stroke="#4F6AFF" stroke-width="2"/>
<path d="M230.534 200.133C236.13 200.133 240.667 195.596 240.667 190C240.667 184.403 236.13 179.866 230.534 179.866C224.937 179.866 220.4 184.403 220.4 190C220.4 195.596 224.937 200.133 230.534 200.133Z" stroke="#4F6AFF" stroke-width="2"/>
<path d="M149.467 200.133C155.064 200.133 159.601 195.596 159.601 190C159.601 184.403 155.064 179.866 149.467 179.866C143.871 179.866 139.334 184.403 139.334 190C139.334 195.596 143.871 200.133 149.467 200.133Z" stroke="#4F6AFF" stroke-width="2"/>
</g>
</svg>
