<svg width="16" height="16" viewBox="0 0 16 16" fill="none" xmlns="http://www.w3.org/2000/svg">
<path d="M15.059 5.96045H3.45117V15.0585H15.059V5.96045Z" fill="white"/>
<path fill-rule="evenodd" clip-rule="evenodd" d="M16 0V16H0V0H16ZM9.06574 8.64835H8.02226V12.7471C8.02226 12.9308 8.01113 13.095 7.98887 13.2397C7.96661 13.3843 7.92348 13.5054 7.85948 13.6028C7.79548 13.7002 7.70922 13.7739 7.6007 13.824C7.49217 13.8741 7.35444 13.8991 7.18748 13.8991C6.87026 13.8991 6.65461 13.8059 6.54052 13.6195C6.42643 13.433 6.36939 13.1701 6.36939 12.8306V12.5217H5.32591V12.839C5.32591 13.1117 5.3593 13.3649 5.42609 13.5986C5.49287 13.8323 5.59861 14.0341 5.7433 14.2038C5.888 14.3736 6.07165 14.5071 6.29426 14.6045C6.51687 14.7019 6.78678 14.7506 7.104 14.7506C7.53252 14.7506 7.87617 14.6922 8.13496 14.5753C8.39374 14.4584 8.5913 14.3026 8.72765 14.1078C8.864 13.913 8.95443 13.6932 8.99896 13.4483C9.04348 13.2035 9.06574 12.9503 9.06574 12.6887V8.64835ZM12.3798 8.50644C12.1127 8.50644 11.8483 8.54122 11.5868 8.61078C11.3252 8.68035 11.0915 8.78748 10.8856 8.93217C10.6797 9.07687 10.5141 9.25913 10.3889 9.47896C10.2637 9.69878 10.201 9.95896 10.201 10.2595C10.201 10.4153 10.2219 10.5683 10.2637 10.7186C10.3054 10.8689 10.3763 11.0108 10.4765 11.1443C10.5767 11.2779 10.7117 11.399 10.8814 11.5075C11.0511 11.616 11.264 11.7037 11.52 11.7704C11.9318 11.8817 12.2783 11.9722 12.5593 12.0417C12.8404 12.1113 13.0866 12.185 13.2981 12.263C13.4205 12.3075 13.5332 12.384 13.6362 12.4925C13.7391 12.601 13.7906 12.7694 13.7906 12.9976C13.7906 13.1089 13.7683 13.2188 13.7238 13.3273C13.6793 13.4358 13.607 13.5318 13.5068 13.6153C13.4066 13.6988 13.2758 13.767 13.1144 13.8198C12.953 13.8727 12.7583 13.8991 12.5301 13.8991C12.3186 13.8991 12.1224 13.8755 11.9416 13.8282C11.7607 13.7809 11.6007 13.7057 11.4616 13.6028C11.3224 13.4998 11.2139 13.3677 11.136 13.2063C11.0581 13.0449 11.0191 12.8501 11.0191 12.6219H9.97565C9.98122 12.9892 10.0508 13.3078 10.1843 13.5777C10.3179 13.8477 10.496 14.0689 10.7186 14.2414C10.9412 14.4139 11.2028 14.5419 11.5033 14.6254C11.8038 14.7089 12.1238 14.7506 12.4633 14.7506C12.7583 14.7506 13.0477 14.7158 13.3315 14.6463C13.6153 14.5767 13.8685 14.4668 14.0911 14.3165C14.3137 14.1663 14.4932 13.9729 14.6296 13.7363C14.7659 13.4998 14.8341 13.2146 14.8341 12.8807C14.8341 12.7249 14.8104 12.569 14.7631 12.4132C14.7158 12.2574 14.6435 12.1113 14.5461 11.975C14.4487 11.8386 14.3277 11.7176 14.183 11.6118C14.0383 11.5061 13.8685 11.4226 13.6737 11.3614C13.5958 11.3391 13.4664 11.3043 13.2856 11.257C13.1047 11.2097 12.9197 11.161 12.7304 11.111C12.5412 11.0609 12.3701 11.015 12.217 10.9732C12.064 10.9315 11.9763 10.9078 11.9541 10.9023C11.7426 10.841 11.5715 10.7506 11.4407 10.631C11.3099 10.5113 11.2445 10.3457 11.2445 10.1343C11.2445 9.984 11.2793 9.85878 11.3489 9.75861C11.4184 9.65843 11.5061 9.57913 11.6118 9.5207C11.7176 9.46226 11.8344 9.42052 11.9624 9.39548C12.0904 9.37043 12.2157 9.35791 12.3381 9.35791C12.6998 9.35791 12.9976 9.43722 13.2313 9.59583C13.465 9.75444 13.5958 10.0257 13.6237 10.4097H14.6671C14.6671 10.0981 14.6059 9.824 14.4835 9.58748C14.361 9.35096 14.1955 9.152 13.9868 8.99061C13.7781 8.82922 13.536 8.70817 13.2605 8.62748C12.985 8.54678 12.6915 8.50644 12.3798 8.50644Z" fill="#4F6AFF"/>
<path d="M0 1.2583H4.40449C4.65271 1.2583 4.85393 1.45952 4.85393 1.70774C4.85393 1.95596 4.65271 2.15718 4.40449 2.15718H0V1.2583Z" fill="#FECE63"/>
<path d="M0 2.69678H3.05618C3.25475 2.69678 3.41573 2.85775 3.41573 3.05633C3.41573 3.2549 3.25475 3.41588 3.05618 3.41588H0V2.69678Z" fill="#FECE63"/>
</svg>
