<svg width="88" height="28" viewBox="0 0 88 28" fill="none" xmlns="http://www.w3.org/2000/svg">
<path d="M27.8105 0C21.8333 0 9.7506 0.00638021 8.9375 0.00638021L18.5406 9.33333L27.8105 0Z" fill="#FECE63"/>
<path d="M9.2699 18.6665L0 27.9998L18.8666 27.9997L18.5398 27.9983L9.2699 18.6665Z" fill="#2D44BF"/>
<path d="M8.93682 0.00585938C8.93682 0.00585938 2.92813 5.99332 0 9.00694C3.00073 12.0935 9.26994 18.6725 9.26994 18.6725L18.5399 9.33609L8.93682 0.00585938Z" fill="#8A9CFC"/>
<path d="M18.5414 9.3335C18.5414 9.3335 12.1996 15.654 9.27148 18.6666C12.2722 21.7521 18.5414 27.9999 18.5414 27.9999C18.5414 27.9999 24.9074 21.7523 27.8114 18.6668C24.738 15.6056 18.5414 9.3335 18.5414 9.3335Z" fill="#4F6AFF"/>
<path d="M44.8528 8.97446C43.623 7.89222 42.3715 7.56754 40.7102 7.56754C38.7683 7.56754 36.2223 8.43334 36.2223 10.9009C36.2223 13.3251 38.6172 14.061 40.6239 14.2125C42.1342 14.2991 42.7383 14.6021 42.7383 15.338C42.7383 16.1173 41.8106 16.6367 40.818 16.6151C39.6313 16.5934 37.9052 15.9657 37.1501 15.1216L35.8555 17.0047C37.409 18.6281 39.0919 18.9094 40.7749 18.9094C43.8172 18.9094 45.3491 17.2861 45.3491 15.403C45.3491 12.5675 42.8031 12.113 40.7965 11.9831C39.4372 11.8965 38.8114 11.5069 38.8114 10.8143C38.8114 10.1433 39.5019 9.75367 40.7533 9.75367C41.7674 9.75367 42.6305 9.99177 43.3856 10.706L44.8528 8.97446Z" fill="white"/>
<path d="M54.3942 15.4463C53.7469 16.0956 52.9054 16.3337 52.0639 16.3337C50.4241 16.3337 49.0432 15.2515 49.0432 13.2169C49.0432 11.3554 50.3378 10.0567 52.1071 10.0567C52.8407 10.0567 53.6174 10.3381 54.2431 10.9009L55.9045 9.14762C54.7394 8.00044 53.5742 7.56754 52.0639 7.56754C48.9785 7.56754 46.4109 9.429 46.4109 13.2169C46.4109 17.0047 48.9785 18.8662 52.0639 18.8662C53.639 18.8662 54.9336 18.39 56.1634 17.1779L54.3942 15.4463Z" fill="white"/>
<path d="M68.2914 14.1476C68.7013 9.75367 66.479 7.5459 62.9189 7.5459C59.4666 7.5459 57.2658 9.88354 57.2658 13.1303C57.2658 16.5502 59.4451 18.8229 63.113 18.8229C64.7313 18.8229 66.5653 18.2601 67.6872 17.0913L66.0043 15.4246C65.4001 16.0523 64.1271 16.4203 63.1562 16.4203C61.3006 16.4203 60.1571 15.4679 59.9845 14.1476H68.2914ZM60.0276 11.9614C60.416 10.5762 61.5811 9.88354 63.0052 9.88354C64.5155 9.88354 65.5943 10.5762 65.7669 11.9614H60.0276Z" fill="white"/>
<path d="M77.6668 7.87057L75.725 12.5459L74.6246 15.4896L73.6105 12.4809L71.9922 7.87057H68.9284L73.1789 18.3683L71.1939 23.0003H74.0851L80.5796 7.87057H77.6668Z" fill="white"/>
<path d="M82 5.28138V8.03028L82 10.303L82 14.9133C82 17.5757 83.5103 18.896 85.819 18.8094C86.6173 18.7878 87.2431 18.6579 87.9982 18.3549L87.2646 16.1038C86.8763 16.2986 86.4016 16.4285 85.9916 16.4285C85.1717 16.4285 84.6107 15.9307 84.6107 14.9133V10.303H87.5667V8.03028H84.6323V5L82 5.28138Z" fill="white"/>
</svg>
