<svg width="40" height="40" viewBox="0 0 40 40" fill="none" xmlns="http://www.w3.org/2000/svg">
<path fill-rule="evenodd" clip-rule="evenodd" d="M22.8018 28.5379L38.1334 16.5484C39.2901 15.6366 39.2901 13.8587 38.1334 12.9469L22.8018 0.957343C21.1689 -0.319114 18.8782 -0.319114 17.2226 0.957343L1.89094 12.9697C0.734269 13.8815 0.734269 15.6594 1.89094 16.5711L17.2226 28.5607C18.8555 29.8372 21.1689 29.8372 22.8018 28.5379Z" fill="#4F6AFF"/>
<path fill-rule="evenodd" clip-rule="evenodd" d="M21.3722 34.3701C20.5558 35.0083 19.3991 35.0083 18.5826 34.3701L4.63446 23.4746C3.81798 22.8364 2.68398 22.8364 1.86751 23.4746C0.710831 24.3864 0.710831 26.1415 1.86751 27.0532L17.1991 39.0428C18.8321 40.3193 21.1228 40.3193 22.7784 39.0428L38.11 27.0532C39.2667 26.1415 39.2667 24.3864 38.11 23.4746L38.0873 23.4518C37.2709 22.8136 36.1369 22.8136 35.3204 23.4518L21.3722 34.3701Z" fill="#FCD36E"/>
</svg>
